# xmcd
#
# Track frame offsets: 
#        187
#        11350
#        30657
#        42990
#        57695
#        71125
#        82267
#        96077
#        110552
#        127607
#
# Disc length: 1858 seconds
#
# Revision: 1
# Processed by: cddbd v1.5.1PL0 Copyright (c) Steve Scherf et al.
# Submitted via: ExactAudioCopy v0.90a11
#
DISCID=8407400a
DTITLE=Various Artist - Tennessee Christmas
DYEAR=1900
DGENRE=
TTITLE0=Reba McEntire-Away In a Manger
TTITLE1=Steve Wariner-Tennessee Christmas
TTITLE2=John Schneider-Please Come Home for Christmas
TTITLE3=Nicolette Larson-One Bright Star
TTITLE4=Loretta Lynn-The First Noel
TTITLE5=Ray Stevens-Greatest Little Christmas Ever Wuz
TTITLE6=Brenda Lee-The Christmas Song
TTITLE7=Jimmy Buffett-Christmas in the Caribbean
TTITLE8=Oak Ridge Boys-Christmas is Paintin the Town
TTITLE9=Barbara Mandrell-Winter Wonderland
EXTD=
EXTT0=
EXTT1=
EXTT2=
EXTT3=
EXTT4=
EXTT5=
EXTT6=
EXTT7=
EXTT8=
EXTT9=
PLAYORDER=
